HIERARCHY
ROOT Root
{
	OFFSET 0.00000 0.00000 0.00000
	CHANNELS 6 Xposition Yposition Zposition Zrotation Xrotation Yrotation
	JOINT Hips
	{
		OFFSET 0 0 0	
		CHANNELS 3 Zrotation Xrotation Yrotation
		JOINT Spine
		{
			OFFSET 0 4 0	
			CHANNELS 3 Zrotation Xrotation Yrotation
			JOINT Spine1
			{
				OFFSET 0 19.4 0	
				CHANNELS 3 Zrotation Xrotation Yrotation
				JOINT Spine2
				{
					OFFSET 0 16.6 0	
					CHANNELS 3 Zrotation Xrotation Yrotation
					JOINT LeftCollar
					{
						OFFSET 0 10 0	
						CHANNELS 3 Zrotation Xrotation Yrotation
						JOINT LeftArm
						{
							OFFSET 15.6 -2 3	
							CHANNELS 3 Zrotation Xrotation Yrotation
							JOINT LeftForeArm
							{
								OFFSET 3.5 -27 -1	
								CHANNELS 3 Zrotation Xrotation Yrotation
								JOINT LeftHand
								{
									OFFSET 1 -27 1	
									CHANNELS 3 Zrotation Xrotation Yrotation
									End Site
									{
										OFFSET 0 -15 0
									}
								}
							}
						}
					}
					JOINT RightCollar
					{
						OFFSET 0 10 0	
						CHANNELS 3 Zrotation Xrotation Yrotation
						JOINT RightArm
						{
							OFFSET -15.6 -2 3	
							CHANNELS 3 Zrotation Xrotation Yrotation
							JOINT RightForeArm
							{
								OFFSET -3.5 -27 -1	
								CHANNELS 3 Zrotation Xrotation Yrotation
								JOINT RightHand
								{
									OFFSET -1 -27 1	
									CHANNELS 3 Zrotation Xrotation Yrotation
									End Site
									{
										OFFSET 0 -15 0
									}
								}
							}
						}
					}
					JOINT Neck
					{
						OFFSET 0 10 0	
						CHANNELS 3 Zrotation Xrotation Yrotation
						JOINT Head
						{
							OFFSET 0 12.7 3	
							CHANNELS 3 Zrotation Xrotation Yrotation
							End Site
							{
								OFFSET 0 12.7 3
							}
						}
					}
				}
			}
		}
	}
	JOINT LeftHip
	{
		OFFSET 0 0 0	
		CHANNELS 3 Zrotation Xrotation Yrotation
		JOINT LeftUpLeg
		{
			OFFSET 8.8 -6 0	
			CHANNELS 3 Zrotation Xrotation Yrotation
			JOINT LeftLeg
			{
				OFFSET 0 -39 2	
				CHANNELS 3 Zrotation Xrotation Yrotation
				JOINT LeftFoot
				{
					OFFSET 0 -43 -2	
					CHANNELS 3 Zrotation Xrotation Yrotation
					JOINT LeftFootFront
					{
						OFFSET 0 -7 8.5	
						CHANNELS 3 Zrotation Xrotation Yrotation
						End Site
						{
							OFFSET 0 -0.5 9
						}
					}
				}
				JOINT LeftHeel
				{
					OFFSET 0 -43 -2	
					CHANNELS 3 Zrotation Xrotation Yrotation
					End Site
					{
						OFFSET 0 -7.5 -5
					}
				}
			}
		}
	}
	JOINT RightHip
	{
		OFFSET 0 0 0	
		CHANNELS 3 Zrotation Xrotation Yrotation
		JOINT RightUpLeg
		{
			OFFSET -8.8 -6 0	
			CHANNELS 3 Zrotation Xrotation Yrotation
			JOINT RightLeg
			{
				OFFSET 0 -39 2	
				CHANNELS 3 Zrotation Xrotation Yrotation
				JOINT RightFoot
				{
					OFFSET 0 -43 -2	
					CHANNELS 3 Zrotation Xrotation Yrotation
					JOINT RightFootFront
					{
						OFFSET 0 -7 8.5	
						CHANNELS 3 Zrotation Xrotation Yrotation
						End Site
						{
							OFFSET 0 -0.5 9
						}
					}
				}
				JOINT RightHeel
				{
					OFFSET 0 -43 -2	
					CHANNELS 3 Zrotation Xrotation Yrotation
					End Site
					{
						OFFSET 0 -7.5 -5
					}
				}
			}
		}
	}
}
MOTION
Frames: 22
Frame Time: 0.05
0 95.848 0 -0 0 -0 -1.1461 2.6557 2.4561 -1.3419 0.71922 1.9577 -1.3419 0.71922 1.9577 -1.1256 0.60723 1.6434 -0 0 -0 1.5529 -3.3723 -0.13382 0.35039 1.5405 10.044 -0 0 -0 -0 0 -0 2.1456 1.3138 -1.7897 1.9812 -4.6942 -2.645 -0 0 -0 -0 0 -0 -0 0 -0 -1.1461 2.6557 2.4561 4.4383 -3.2607 -4.2538 -0 0 -0 -0 0 -0 -0 0 -0 -0 0 -0 -1.1461 2.6557 2.4561 2.3043 -0.79517 -0.53213 -0 0 -0 -0 0 -0 -0 0 -0 -0 0 -0 
0 95.848 0 -0 0 -0 -1.1438 2.6463 2.5218 -1.34 0.72525 1.9664 -1.34 0.72525 1.9664 -1.1239 0.61231 1.6507 -0 0 -0 1.5184 -3.3643 -0.029252 0.4259 1.4512 10.059 -0 0 -0 -0 0 -0 2.0739 1.3261 -1.9432 2.0706 -4.7179 -2.5177 -0 0 -0 -0 0 -0 -0 0 -0 -1.1438 2.6463 2.5218 4.4361 -3.2655 -4.286 -0 0 -0 -0 0 -0 -0 0 -0 -0 0 -0 -1.1438 2.6463 2.5218 2.3557 -0.73533 -0.5382 -0 0 -0 -0 0 -0 -0 0 -0 -0 0 -0 
0 95.848 0 -0 0 -0 -1.129 2.6313 2.6008 -1.3693 0.74132 1.9531 -1.3693 0.74132 1.9531 -1.1485 0.62586 1.6394 -0 0 -0 1.5549 -3.3757 0.11653 0.51175 1.3534 10.093 -0 0 -0 -0 0 -0 2.0739 1.3101 -2.0197 2.1476 -4.7433 -2.404 -0 0 -0 -0 0 -0 -0 0 -0 -1.129 2.6313 2.6008 4.4449 -3.2573 -4.2714 -0 0 -0 -0 0 -0 -0 0 -0 -0 0 -0 -1.129 2.6313 2.6008 2.3691 -0.68699 -0.6058 -0 0 -0 -0 0 -0 -0 0 -0 -0 0 -0 
0 95.848 0 -0 0 -0 -1.1151 2.6294 2.6973 -1.4224 0.73589 1.9119 -1.4224 0.73589 1.9119 -1.1932 0.62135 1.6047 -0 0 -0 1.6325 -3.3214 0.2758 0.65276 1.3259 10.155 -0 0 -0 -0 0 -0 2.1398 1.3209 -1.946 2.1797 -4.7742 -2.3676 -0 0 -0 -0 0 -0 -0 0 -0 -1.1151 2.6294 2.6973 4.4274 -3.2571 -4.3541 -0 0 -0 -0 0 -0 -0 0 -0 -0 0 -0 -1.1151 2.6294 2.6973 2.3818 -0.64822 -0.68744 -0 0 -0 -0 0 -0 -0 0 -0 -0 0 -0 
0 95.848 0 -0 0 -0 -1.1194 2.6331 2.7677 -1.4867 0.72391 1.9054 -1.4867 0.72391 1.9054 -1.2472 0.61142 1.5992 -0 0 -0 1.7406 -3.2418 0.36499 0.87424 1.419 10.181 -0 0 -0 -0 0 -0 2.2591 1.308 -1.8951 2.1897 -4.8136 -2.4376 -0 0 -0 -0 0 -0 -0 0 -0 -1.1194 2.6331 2.7677 4.439 -3.2698 -4.4228 -0 0 -0 -0 0 -0 -0 0 -0 -0 0 -0 -1.1194 2.6331 2.7677 2.4059 -0.61654 -0.7454 -0 0 -0 -0 0 -0 -0 0 -0 -0 0 -0 
0 95.848 0 -0 0 -0 -1.1199 2.6327 2.7888 -1.5381 0.71844 1.9313 -1.5381 0.71844 1.9313 -1.2904 0.60699 1.621 -0 0 -0 1.8251 -3.1724 0.45166 1.1687 1.805 10.255 -0 0 -0 -0 0 -0 2.3589 1.2614 -1.8616 2.205 -4.8519 -2.5922 -0 0 -0 -0 0 -0 -0 0 -0 -1.1199 2.6327 2.7888 4.445 -3.2592 -4.4696 -0 0 -0 -0 0 -0 -0 0 -0 -0 0 -0 -1.1199 2.6327 2.7888 2.4257 -0.58569 -0.78178 -0 0 -0 -0 0 -0 -0 0 -0 -0 0 -0 
0 95.848 0 -0 0 -0 -1.1139 2.6239 2.7977 -1.6127 0.72684 2.0375 -1.6127 0.72684 2.0375 -1.3529 0.61441 1.7101 -0 0 -0 1.986 -3.1634 0.36028 1.2319 1.932 10.138 -0 0 -0 -0 0 -0 2.5522 1.1673 -2.0469 2.2306 -4.8803 -2.7473 -0 0 -0 -0 0 -0 -0 0 -0 -1.1139 2.6239 2.7977 4.439 -3.2443 -4.4675 -0 0 -0 -0 0 -0 -0 0 -0 -0 0 -0 -1.1139 2.6239 2.7977 2.4434 -0.54517 -0.81445 -0 0 -0 -0 0 -0 -0 0 -0 -0 0 -0 
0 95.848 0 -0 0 -0 -1.1031 2.6424 2.8037 -1.6332 0.70378 2.0843 -1.6332 0.70378 2.0843 -1.3702 0.59518 1.7494 -0 0 -0 2.0334 -3.1413 0.42049 1.2005 2.0024 9.9909 -0 0 -0 -0 0 -0 2.6188 1.1432 -2.0701 2.2866 -4.8738 -2.8291 -0 0 -0 -0 0 -0 -0 0 -0 -1.1031 2.6424 2.8037 4.4177 -3.257 -4.4948 -0 0 -0 -0 0 -0 -0 0 -0 -0 0 -0 -1.1031 2.6424 2.8037 2.4562 -0.54866 -0.81752 -0 0 -0 -0 0 -0 -0 0 -0 -0 0 -0 
0 95.848 0 -0 0 -0 -1.0755 2.6749 2.8051 -1.6227 0.67112 2.0978 -1.6227 0.67112 2.0978 -1.3614 0.56774 1.7609 -0 0 -0 2.0331 -3.1621 0.5031 1.1335 2.0766 9.8862 -0 0 -0 -0 0 -0 2.5997 1.1702 -2.0281 2.3529 -4.8824 -2.821 -0 0 -0 -0 0 -0 -0 0 -0 -1.0755 2.6749 2.8051 4.3676 -3.2942 -4.5104 -0 0 -0 -0 0 -0 -0 0 -0 -0 0 -0 -1.0755 2.6749 2.8051 2.4354 -0.58891 -0.80688 -0 0 -0 -0 0 -0 -0 0 -0 -0 0 -0 
0 95.848 0 -0 0 -0 -1.0845 2.7866 2.7911 -1.5644 0.60832 2.1101 -1.5644 0.60832 2.1101 -1.3126 0.51487 1.7714 -0 0 -0 1.9926 -3.2185 0.48967 0.99109 2.1382 9.885 -0 0 -0 -0 0 -0 2.5022 1.239 -2.0366 2.4166 -4.9596 -2.8083 -0 0 -0 -0 0 -0 -0 0 -0 -1.0845 2.7866 2.7911 4.2435 -3.5126 -4.6144 -0 0 -0 -0 0 -0 -0 0 -0 -0 0 -0 -1.0845 2.7866 2.7911 2.4115 -0.78536 -0.78322 -0 0 -0 -0 0 -0 -0 0 -0 -0 0 -0 
0 95.848 0 -0 0 -0 -1.1729 3.0006 2.661 -1.4357 0.48114 2.1349 -1.4357 0.48114 2.1349 -1.2048 0.40776 1.7925 -0 0 -0 1.8592 -3.2246 0.48081 0.85289 2.2011 9.7777 -0 0 -0 -0 0 -0 2.2948 1.5371 -2.0451 2.4324 -5.2472 -2.9139 -0 0 -0 -0 0 -0 -0 0 -0 -1.1729 3.0006 2.661 4.021 -3.9365 -4.9047 -0 0 -0 -0 0 -0 -0 0 -0 -0 0 -0 -1.1729 3.0006 2.661 2.4348 -1.1853 -0.70179 -0 0 -0 -0 0 -0 -0 0 -0 -0 0 -0 
0 95.848 0 -0 0 -0 -1.335 3.2285 2.2266 -1.2513 0.29352 2.127 -1.2513 0.29352 2.127 -1.0504 0.24968 1.7862 -0 0 -0 1.5876 -3.19 0.85282 0.80911 2.3953 9.4308 -0 0 -0 -0 0 -0 1.8836 2.2527 -1.8307 2.4917 -5.9074 -3.352 -0 0 -0 -0 0 -0 -0 0 -0 -1.335 3.2285 2.2266 3.7631 -4.5648 -5.4343 -0 0 -0 -0 0 -0 -0 0 -0 -0 0 -0 -1.335 3.2285 2.2266 2.5358 -1.6877 -0.52888 -0 0 -0 -0 0 -0 -0 0 -0 -0 0 -0 
0 95.848 0 -0 0 -0 -1.4771 3.3498 1.3198 -1.1653 0.041826 1.9849 -1.1653 0.041825 1.9849 -0.97874 0.037847 1.6673 -0 0 -0 1.511 -3.0636 1.7958 0.82333 2.8453 9.1272 -0 0 -0 -0 0 -0 1.3323 3.0556 -1.4202 2.7806 -6.5108 -3.9248 -0 0 -0 -0 0 -0 -0 0 -0 -1.4771 3.3498 1.3198 3.4663 -5.2217 -5.3157 -0 0 -0 -0 0 -0 -0 0 -0 -0 0 -0 -1.4771 3.3498 1.3198 2.576 -2.2072 -0.42716 -0 0 -0 -0 0 -0 -0 0 -0 -0 0 -0 
0 95.848 0 -0 0 -0 -1.508 3.1198 -0.28398 -1.3971 -0.21573 1.6594 -1.3971 -0.21573 1.6594 -1.174 -0.17849 1.3943 -0 0 -0 2.3382 -2.7176 2.9843 0.89557 3.7116 9.1445 -0 0 -0 -0 0 -0 1.4754 3.8016 -0.93131 2.9257 -6.9275 -4.6427 -0 0 -0 -0 0 -0 -0 0 -0 -1.508 3.1198 -0.28398 3.1634 -5.0851 -5.0281 -0 0 -0 -0 0 -0 -0 0 -0 -0 0 -0 -1.508 3.1198 -0.28398 2.4683 -2.485 -0.55159 -0 0 -0 -0 0 -0 -0 0 -0 -0 0 -0 
0 95.848 0 -0 0 -0 -1.383 2.6649 -2.5516 -1.831 -0.42358 0.8365 -1.831 -0.42358 0.8365 -1.5384 -0.35401 0.70358 -0 0 -0 3.9641 -2.1258 4.178 0.62034 4.9772 10.092 -0 0 -0 -0 0 -0 1.8495 4.2875 -0.054849 3.3357 -7.5475 -6.0126 -0 0 -0 -0 0 -0 -0 0 -0 -1.383 2.6649 -2.5516 2.4684 -4.2303 -5.1136 -0 0 -0 -0 0 -0 -0 0 -0 -0 0 -0 -1.383 2.6649 -2.5516 2.2285 -2.6147 -0.68883 -0 0 -0 -0 0 -0 -0 0 -0 -0 0 -0 
0 95.848 0 -0 0 -0 -1.3665 2.1948 -5.5083 -2.2195 -0.69203 -0.40896 -2.2195 -0.69203 -0.40896 -1.8641 -0.58238 -0.34173 -0 0 -0 5.4306 -0.73134 3.9829 1.5892 6.305 9.2556 -0 0 -0 -0 0 -0 1.9946 4.9718 0.70471 4.2087 -8.762 -7.3442 -0 0 -0 -0 0 -0 -0 0 -0 -1.3665 2.1948 -5.5083 1.9518 -3.2639 -5.9795 -0 0 -0 -0 0 -0 -0 0 -0 -0 0 -0 -1.3665 2.1948 -5.5083 2.0829 -2.661 -0.44339 -0 0 -0 -0 0 -0 -0 0 -0 -0 0 -0 
0 95.848 0 -0 0 -0 -1.8021 1.6224 -9.5002 -2.1815 -0.75835 -1.8361 -2.1815 -0.75835 -1.8361 -1.8308 -0.64173 -1.5404 -0 0 -0 5.7425 0.41145 3.3837 3.884 7.7218 5.0469 -0 0 -0 -0 0 -0 0.9817 5.3112 1.2666 5.3277 -10.296 -8.0404 -0 0 -0 -0 0 -0 -0 0 -0 -1.8021 1.6224 -9.5002 1.7554 -2.2435 -5.9736 -0 0 -0 -0 0 -0 -0 0 -0 -0 0 -0 -1.8021 1.6224 -9.5002 2.2727 -2.7404 0.42397 -0 0 -0 -0 0 -0 -0 0 -0 -0 0 -0 
0 95.848 0 -0 0 -0 -2.2141 1.094 -14.569 -2.0004 -0.61161 -3.2325 -2.0004 -0.61161 -3.2325 -1.678 -0.52136 -2.7138 -0 0 -0 5.774 0.56051 3.383 4.2184 9.1375 2.027 -0 0 -0 -0 0 -0 -0.58113 5.0771 1.414 6.1798 -11.617 -8.9202 -0 0 -0 -0 0 -0 -0 0 -0 -2.2141 1.094 -14.569 1.3106 -0.89853 -4.7658 -0 0 -0 -0 0 -0 -0 0 -0 -0 0 -0 -2.2141 1.094 -14.569 2.3828 -3.0862 1.2282 -0 0 -0 -0 0 -0 -0 0 -0 -0 0 -0 
0 95.848 0 -0 0 -0 -2.6145 0.6854 -20.281 -1.9188 -0.30677 -4.4559 -1.9188 -0.30677 -4.4559 -1.6103 -0.26773 -3.7423 -0 0 -0 6.422 -0.31884 2.6307 2.1098 10.255 1.5548 -0 0 -0 -0 0 -0 -1.7704 4.9159 0.76121 6.9109 -13.112 -11.439 -0 0 -0 -0 0 -0 -0 0 -0 -2.6145 0.6854 -20.281 1.0085 -0.13723 -4.0532 -0 0 -0 -0 0 -0 -0 0 -0 -0 0 -0 -2.6145 0.6854 -20.281 2.5838 -3.6546 1.3688 -0 0 -0 -0 0 -0 -0 0 -0 -0 0 -0 
0 95.848 0 -0 0 -0 -3.1809 0.17608 -26.345 -1.7835 0.29323 -5.6085 -1.7835 0.29323 -5.6085 -1.5002 0.2346 -4.7118 -0 0 -0 7.6124 -2.4903 0.67126 -1.3461 10.731 1.8224 -0 0 -0 -0 0 -0 -3.1311 4.7912 -0.19981 8.1024 -14.811 -16.417 -0 0 -0 -0 0 -0 -0 0 -0 -3.1809 0.17608 -26.345 0.53704 0.21192 -3.0891 -0 0 -0 -0 0 -0 -0 0 -0 -0 0 -0 -3.1809 0.17608 -26.345 3.2404 -4.0398 1.6939 -0 0 -0 -0 0 -0 -0 0 -0 -0 0 -0 
0 95.848 0 -0 0 -0 -3.6435 -0.78626 -32.028 -1.7877 1.2228 -6.8364 -1.7877 1.2228 -6.8364 -1.5117 1.013 -5.745 -0 0 -0 9.1374 -5.9922 -2.691 -6.4706 10.039 4.3142 -0 0 -0 -0 0 -0 -4.5029 4.5397 -2.0658 9.543 -16.665 -23.068 -0 0 -0 -0 0 -0 -0 0 -0 -3.6435 -0.78626 -32.028 -0.25008 1.0268 -1.5763 -0 0 -0 -0 0 -0 -0 0 -0 -0 0 -0 -3.6435 -0.78626 -32.028 3.7088 -4.0112 2.9493 -0 0 -0 -0 0 -0 -0 0 -0 -0 0 -0 
0 95.848 0 -0 0 -0 -4.323 -1.7636 -37.571 -1.748 2.1643 -8.1211 -1.748 2.1643 -8.1211 -1.4891 1.8017 -6.8257 -0 0 -0 10.076 -10.425 -6.8731 -11.728 8.2484 7.957 -0 0 -0 -0 0 -0 -5.9087 4.5036 -4.2338 10.01 -18.095 -29.915 -0 0 -0 -0 0 -0 -0 0 -0 -4.323 -1.7636 -37.571 -1.132 1.9789 -0.85292 -0 0 -0 -0 0 -0 -0 0 -0 -0 0 -0 -4.323 -1.7636 -37.571 3.9455 -3.9873 5.2943 -0 0 -0 -0 0 -0 -0 0 -0 -0 0 -0 
